<?xml version="1.0" encoding="iso-8859-1"?>
<!-- Generator: Adobe Illustrator 18.1.1, SVG Export Plug-In . SVG Version: 6.00 Build 0)  -->
<svg version="1.1" id="Capa_1" xmlns="http://www.w3.org/2000/svg" xmlns:xlink="http://www.w3.org/1999/xlink" x="0px" y="0px"
	 viewBox="0 0 612 612" style="enable-background:new 0 0 612 612;" xml:space="preserve">
<g>
	<g>
		<g>
			<path d="M490.034,541.718L353.391,135.059c17.349-13.898,28.484-35.23,28.484-59.189C381.875,33.969,347.896,0,306.004,0
				s-75.86,33.969-75.86,75.87c0,23.959,11.135,45.291,28.473,59.189L121.963,541.718c-15.795,3.659-27.597,17.745-27.597,34.646
				c0,19.684,15.952,35.637,35.637,35.637h351.995c19.684,0,35.637-15.952,35.637-35.637
				C517.633,559.462,505.831,545.377,490.034,541.718z M306.004,157.695l42.768,127.271c-26.596-1.553-52.224,14.179-62.025,40.443
				c-12.021,32.248,4.379,68.145,36.585,80.166c21.978,8.174,45.614,3.169,62.264-11.02l47.23,140.564H179.181L306.004,157.695z"/>
			<path d="M294.118,428.761c6.151-16.525-2.231-34.917-18.777-41.069c-16.494-6.172-34.907,2.231-41.058,18.767
				c-6.193,16.504,2.242,34.917,18.787,41.069C269.555,453.7,287.967,445.286,294.118,428.761z"/>
			<circle cx="296.141" cy="482.226" r="17.933"/>
		</g>
	</g>
	<g>
	</g>
	<g>
	</g>
	<g>
	</g>
	<g>
	</g>
	<g>
	</g>
	<g>
	</g>
	<g>
	</g>
	<g>
	</g>
	<g>
	</g>
	<g>
	</g>
	<g>
	</g>
	<g>
	</g>
	<g>
	</g>
	<g>
	</g>
	<g>
	</g>
</g>
<g>
</g>
<g>
</g>
<g>
</g>
<g>
</g>
<g>
</g>
<g>
</g>
<g>
</g>
<g>
</g>
<g>
</g>
<g>
</g>
<g>
</g>
<g>
</g>
<g>
</g>
<g>
</g>
<g>
</g>
</svg>
