<svg id="Capa_1" enable-background="new 0 0 512 512" height="512" viewBox="0 0 512 512" width="512" xmlns="http://www.w3.org/2000/svg"><g><path d="m379.48 159.885c22.056 0 40-17.944 40-40s-17.944-40-40-40-40 17.944-40 40 17.945 40 40 40zm0-60c11.028 0 20 8.972 20 20s-8.972 20-20 20-20-8.972-20-20 8.972-20 20-20z"/><path d="m176 119.885c0-22.056-17.944-40-40-40s-40 17.944-40 40 17.944 40 40 40 40-17.945 40-40zm-40 20c-11.028 0-20-8.972-20-20s8.972-20 20-20 20 8.972 20 20-8.972 20-20 20z"/><circle cx="399" cy="269.885" r="10"/><path d="m510.507 264.628c-1.822-2.948-5.041-4.743-8.507-4.743h-57.999c-5.522 0-10 4.478-10 10s4.478 10 10 10h41.818l-22.764 45.528c-1.407 2.814-1.407 6.129 0 8.943l22.764 45.528h-189.819v-20c0-5.522-4.478-10-10-10s-10 4.478-10 10v20h-62.666l83.909-100h56.756c5.522 0 10-4.478 10-10s-4.478-10-10-10h-39.974l37.027-44.128c9.182 2.726 18.71 4.128 28.429 4.128 55.141 0 100-44.859 100-100s-44.859-100-100-100-100 44.859-100 100c0 15.436 3.572 30.629 10.369 44.358l-32.369 38.576-32.044-38.187c6.924-13.825 10.563-29.152 10.563-44.746 0-55.141-44.86-100-100-100s-100 44.859-100 100 44.86 100 100 100c9.554 0 18.938-1.358 27.999-3.999l36.919 43.999h-190.918c-3.466 0-6.685 1.795-8.506 4.743-1.822 2.947-1.988 6.629-.438 9.729l27.764 55.528-27.764 55.528c-1.55 3.1-1.384 6.781.438 9.729s5.041 4.743 8.506 4.733h83.186c-17.596 29.024-11.895 67.434 14.887 89.902 1.874 1.571 4.154 2.339 6.422 2.339 2.854 0 5.688-1.215 7.666-3.572l74.392-88.658h121.844l74.393 88.658c3.538 4.217 9.844 4.793 14.087 1.233 26.782-22.469 32.482-60.878 14.887-89.892h80.236c3.466 0 6.685-1.795 8.507-4.743 1.821-2.947 1.987-6.629.438-9.729l-27.764-55.528 27.764-55.528c1.549-3.1 1.383-6.782-.438-9.729zm-131.027-224.743c44.112 0 80 35.888 80 80s-35.888 80-80 80c-43.922 0-80-35.544-80-80 0-44.113 35.888-80 80-80zm-161.168 209.614-34.888-41.58c11.832-6.392 22.3-15.134 30.708-25.647l30.296 36.103zm-162.312-129.614c0-44.112 35.888-80 80-80s80 35.888 80 80c0 44.027-35.636 80-80 80-44.112 0-80-35.888-80-80zm-7.056 214.471c1.408-2.814 1.408-6.129 0-8.943l-22.764-45.528h166.636l-83.909 100h-82.727zm64.969 132.902c-14.479-18.209-14.672-44.745.849-63.246 24.388-29.063 186.215-221.915 186.336-222.059 8.364 10.542 18.792 19.324 30.594 25.763zm286.275-63.246c15.521 18.501 15.327 45.037.85 63.246l-56.534-67.373h52.222z"/></g></svg>