<?xml version="1.0" encoding="iso-8859-1"?>
<!-- Generator: Adobe Illustrator 18.0.0, SVG Export Plug-In . SVG Version: 6.00 Build 0)  -->
<!DOCTYPE svg PUBLIC "-//W3C//DTD SVG 1.1//EN" "http://www.w3.org/Graphics/SVG/1.1/DTD/svg11.dtd">
<svg version="1.1" id="Capa_1" xmlns="http://www.w3.org/2000/svg" xmlns:xlink="http://www.w3.org/1999/xlink" x="0px" y="0px"
	 viewBox="0 0 462.787 462.787" style="enable-background:new 0 0 462.787 462.787;" xml:space="preserve">
<g>
	<path d="M139.728,138.846L139.52,15.78c-0.008-4.355-2.506-8.335-6.427-10.23C126.161,2.198,114.612,0,101.466,0
		C88.313,0,76.763,2.197,69.83,5.549c-3.923,1.896-6.419,5.872-6.427,10.229l-0.216,123.067
		c-28.65,4.56-48.396,14.033-48.396,25.022v271c0,15.418,38.8,27.918,86.675,27.918c47.859,0,86.675-12.5,86.675-27.918v-271
		C188.14,152.879,168.379,143.406,139.728,138.846z M154.7,372.869c0,9.584-7.764,17.346-17.344,17.346h-71.78
		c-9.581,0-17.344-7.762-17.344-17.346V234.641c0-9.588,7.764-17.352,17.344-17.352h71.78c9.581,0,17.344,7.764,17.344,17.352
		V372.869z"/>
	<path d="M295.194,435.238v-79.443c32.994-5.645,58.164-34.195,58.164-68.799c0-12.84-3.636-24.768-9.689-35.104
		c-0.5-0.855-1.417-1.379-2.402-1.379H225.463c-0.985,0-1.91,0.523-2.402,1.379c-6.054,10.336-9.689,22.264-9.689,35.104
		c0,34.604,25.169,63.154,58.163,68.799v79.443c-23.683,1.418-41.404,6.949-41.404,13.588c0,7.715,23.836,13.961,53.234,13.961
		c29.398,0,53.234-6.246,53.234-13.961C336.599,442.188,318.878,436.656,295.194,435.238z"/>
	<path d="M447.996,239.678c0-12.84-3.636-24.769-9.689-35.105c-0.5-0.855-1.416-1.379-2.402-1.379H320.101
		c-0.985,0-1.91,0.524-2.402,1.379c-5.26,8.987-8.535,19.224-9.342,30.168h32.909c6.562,0,12.701,3.52,16.011,9.18
		c7.756,13.24,11.854,28.135,11.854,43.076c0,7.602-1.093,14.941-2.957,21.967v78.957c-23.684,1.418-41.405,6.947-41.405,13.586
		c0,7.717,23.836,13.963,53.234,13.963c29.398,0,53.234-6.246,53.234-13.963c0-6.639-17.721-12.168-41.405-13.586v-79.443
		C422.827,302.832,447.996,274.279,447.996,239.678z"/>
</g>
<g>
</g>
<g>
</g>
<g>
</g>
<g>
</g>
<g>
</g>
<g>
</g>
<g>
</g>
<g>
</g>
<g>
</g>
<g>
</g>
<g>
</g>
<g>
</g>
<g>
</g>
<g>
</g>
<g>
</g>
</svg>
