<?xml version="1.0" encoding="iso-8859-1"?>
<!-- Generator: Adobe Illustrator 19.0.0, SVG Export Plug-In . SVG Version: 6.00 Build 0)  -->
<svg version="1.1" id="Layer_1" xmlns="http://www.w3.org/2000/svg" xmlns:xlink="http://www.w3.org/1999/xlink" x="0px" y="0px"
	 viewBox="0 0 500 500" style="enable-background:new 0 0 500 500;" xml:space="preserve">
<g>
	<g>
		<path d="M468.664,52.716c-2.208,0-4,1.788-4,4v316.192H35.332V56.716c0-2.212-1.792-4-4-4c-2.208,0-4,1.788-4,4v320.192
			c0,2.212,1.792,4,4,4h437.336c2.208,0,4-1.792,3.996-4V56.716C472.664,54.504,470.872,52.716,468.664,52.716z"/>
	</g>
</g>
<g>
	<g>
		<path d="M484.288,21.476H15.716c-2.208,0-4,1.788-4,4v31.24c0,2.212,1.792,4,4,4H414c2.208,0,4-1.788,4-4c0-2.212-1.792-4-4-4
			H19.716v-23.24h460.568v23.24h-31.14c-2.208,0-4,1.788-4,4c0,2.212,1.792,4,4,4h35.14c2.212,0,4-1.792,4.004-4v-31.24
			C488.288,23.264,486.496,21.476,484.288,21.476z"/>
	</g>
</g>
<g>
	<g>
		<path d="M496,21.476H4c-2.208,0-4,1.788-4,4c0,2.212,1.792,4,4,4h492c2.208,0,4-1.788,4-4C500,23.264,498.208,21.476,496,21.476z"
			/>
	</g>
</g>
<g>
	<g>
		<path d="M250,1.952c-2.208,0-4,1.788-4,4v15.62c0,2.212,1.792,4,4,4s4-1.792,4-4.004V5.952C254,3.74,252.208,1.952,250,1.952z"/>
	</g>
</g>
<g>
	<g>
		<path d="M250,372.908c-2.208,0-4,1.788-4,4v117.14c0,2.212,1.792,4,4,4s4-1.792,4-4v-117.14
			C254,374.696,252.208,372.908,250,372.908z"/>
	</g>
</g>
<g>
	<g>
		<path d="M363.24,490.048H136.76c-2.208,0-4,1.788-4,4c0,2.212,1.792,4,4,4h226.48c2.208,0,4-1.788,4-4
			C367.24,491.836,365.448,490.048,363.24,490.048z"/>
	</g>
</g>
<g>
</g>
<g>
</g>
<g>
</g>
<g>
</g>
<g>
</g>
<g>
</g>
<g>
</g>
<g>
</g>
<g>
</g>
<g>
</g>
<g>
</g>
<g>
</g>
<g>
</g>
<g>
</g>
<g>
</g>
</svg>
