<?xml version="1.0" encoding="iso-8859-1"?>
<!-- Generator: Adobe Illustrator 16.0.0, SVG Export Plug-In . SVG Version: 6.00 Build 0)  -->
<!DOCTYPE svg PUBLIC "-//W3C//DTD SVG 1.1//EN" "http://www.w3.org/Graphics/SVG/1.1/DTD/svg11.dtd">
<svg version="1.1" id="Capa_1" xmlns="http://www.w3.org/2000/svg" xmlns:xlink="http://www.w3.org/1999/xlink" x="0px" y="0px"
	 width="369.715px" height="369.715px" viewBox="0 0 369.715 369.715" style="enable-background:new 0 0 369.715 369.715;"
	 xml:space="preserve">
<g>
	<g>
		<path d="M22.473,244.726h325.859c4.143,0,7.5-3.357,7.5-7.5c0-88.446-62.359-161.99-143.663-175.413
			c0.761-2.562,1.183-5.267,1.183-8.072c0-15.712-12.783-28.496-28.495-28.496c-15.712,0-28.495,12.783-28.495,28.496
			c0,2.871,0.438,5.639,1.232,8.253C76.801,75.871,14.973,149.159,14.973,237.226C14.973,241.368,18.331,244.726,22.473,244.726z
			 M184.857,40.246c7.441,0,13.495,6.054,13.495,13.496c0,2.268-0.568,4.404-1.562,6.282c-3.767-0.261-7.562-0.407-11.388-0.407
			c-3.963,0-7.892,0.153-11.788,0.433l-0.644,0.075c-1.025-1.902-1.609-4.074-1.609-6.382
			C171.362,46.3,177.416,40.246,184.857,40.246z M185.403,74.616c83.302,0,151.509,68.912,155.267,155.11H30.136
			C33.893,143.528,102.1,74.616,185.403,74.616z"/>
		<path d="M362.215,270.415H7.5c-4.143,0-7.5,3.357-7.5,7.5v59.055c0,4.141,3.357,7.5,7.5,7.5h354.715c4.143,0,7.5-3.359,7.5-7.5
			v-59.055C369.715,273.772,366.357,270.415,362.215,270.415z M354.715,329.468H15v-44.054h339.715V329.468L354.715,329.468z"/>
	</g>
</g>
<g>
</g>
<g>
</g>
<g>
</g>
<g>
</g>
<g>
</g>
<g>
</g>
<g>
</g>
<g>
</g>
<g>
</g>
<g>
</g>
<g>
</g>
<g>
</g>
<g>
</g>
<g>
</g>
<g>
</g>
</svg>
